<svg width="141" height="18" viewBox="0 0 141 18" fill="none" xmlns="http://www.w3.org/2000/svg">
<g clip-path="url(#clip0_13398_67291)">
<path d="M134.544 17.0359L133.562 17.1095L133.292 17.6741H141.025L140.755 17.1095L139.871 17.0359C138.766 16.9622 138.545 16.7168 137.809 14.5566L132.85 0.0736421H131.991L127.818 11.6845C126.002 16.6677 125.805 16.8395 124.283 17.0359L123.743 17.1095L123.473 17.6741H129.978L129.708 17.1095L129.021 17.0359C128.039 16.9377 127.425 16.8395 127.229 16.5204C126.983 16.1276 127.253 15.2194 127.769 13.7711L129.021 10.2608H133.759L135.501 15.4648C135.673 16.0294 135.698 16.4222 135.526 16.6677C135.33 16.8886 135.035 17.0113 134.544 17.0359ZM129.266 9.57347L131.476 3.46118C132.237 5.74408 133.243 8.71431 133.513 9.57347H129.266ZM38.7848 0.9328L39.0548 0.36821H39.0303H31.3224H31.2979L31.5679 0.9328L32.7707 1.05554C33.3108 1.10463 33.8753 1.27646 33.8753 1.27646V3.92758V16.7658C33.8753 16.7658 33.3108 16.9377 32.7462 16.9868L31.5679 17.1095L31.2979 17.6741H39.0303L38.7603 17.1095L37.5574 16.9868C37.0174 16.9377 36.4283 16.7658 36.4283 16.7658V16.7168V6.28412V1.27646C36.4283 1.27646 37.0174 1.10463 37.582 1.05554L38.7848 0.9328ZM6.28412 7.16783C3.82939 6.30867 2.20926 5.47406 2.20926 3.63301C2.20926 1.91469 3.78029 0.662779 5.71953 0.662779C6.996 0.662779 7.95334 1.27646 8.54248 1.71832L10.4817 5.03221H10.9481L10.6536 0.417305L9.35254 0.785515C8.14972 0.36821 6.87326 0 5.74408 0C3.11751 0 0.122737 1.66922 0.122737 4.78674C0.122737 7.68332 2.82295 8.8616 5.03221 9.57347C8.00244 10.5063 10.2362 11.93 10.1872 13.8693C10.1381 16.5204 7.95334 17.4532 5.5968 17.2813C3.58391 17.1095 1.96379 15.6612 1.10463 13.5501L0.4664 12.1018H0L0.270021 17.625H0.908252L1.52194 16.864C2.89659 17.4041 4.41852 17.8705 5.57225 17.9441C7.60968 18.0423 9.89258 17.6496 11.3163 16.1031C12.1755 15.2194 12.5191 14.0165 12.5191 12.8383C12.4946 9.52437 8.88614 8.02699 6.28412 7.16783ZM58.3245 0.36821L57.1217 5.25313H57.6126L57.8581 4.78674C59.1591 2.332 60.632 1.12918 62.2521 1.00644H64.805V16.7413C64.805 16.7413 64.7805 16.7413 64.7559 16.7658C64.6332 16.7904 64.535 16.8149 64.4122 16.8395C64.0931 16.9131 63.774 16.9622 63.4549 16.9868C63.0621 17.0359 62.6448 17.0604 62.2521 17.085L61.9821 17.6496H70.1809L69.9109 17.085L68.7817 16.9868L68.4871 16.9622C67.9471 16.9131 67.3579 16.7413 67.3579 16.7413V1.00644H69.8372C71.8256 1.10463 73.0529 2.13562 74.2312 4.78674L74.4521 5.25313H74.9431L74.0594 0.36821H58.3245ZM108.597 17.0359C108.303 17.0113 107.959 16.9868 107.689 16.8395C107.272 16.6186 106.977 16.2504 106.756 15.8576C105.627 13.8693 105.725 11.3163 104.547 9.30345C104.523 9.25435 104.498 9.20526 104.449 9.15617C104.007 8.44429 103.418 7.97789 102.755 7.68332C102.092 7.36421 101.331 7.14328 100.374 7.26602C100.251 7.29057 99.9568 7.33966 99.9568 7.33966L101.061 6.23503C101.724 5.5477 102.289 4.98311 102.78 4.46762C106.045 1.10463 106.045 1.10463 107.763 0.981894L108.205 0.957347L108.475 0.392758H101.749L101.945 0.957347L102.534 1.00644C103.295 1.08008 104.007 1.17827 104.105 1.42375C104.302 1.93924 102.583 3.7312 100.644 5.69499L96.9129 9.47528V1.30101C96.9129 1.30101 97.2075 1.15373 98.0421 1.08008L99.3677 0.957347L99.6377 0.392758H91.9053L92.1753 0.957347L93.0099 1.05554C93.3045 1.08008 93.9673 1.15373 94.3355 1.30101V16.7904C94.3355 16.7904 93.9182 16.9377 93.2799 17.0113L92.1508 17.1341L91.8807 17.6986H99.6132L99.3431 17.1341L98.3121 17.0359C97.993 17.0113 97.0357 16.864 96.9375 16.7904V10.4081C97.4775 9.86804 98.4349 8.91069 98.4349 8.91069C98.6313 8.71431 98.8522 8.54248 99.0977 8.3952C99.3186 8.24791 99.5641 8.10063 99.8341 8.02699C100.03 7.95334 100.251 7.9288 100.472 7.9288C101.381 7.9288 102.166 8.61612 102.583 9.62257C103.025 10.6536 103.222 11.7827 103.418 13.0101C103.59 14.1393 103.786 15.293 104.056 16.4222C104.081 16.5695 104.081 16.6677 104.032 16.7658C103.958 16.9377 103.688 17.0113 103.295 17.0359L102.387 17.1095L102.117 17.6741H109.653L109.383 17.1095L108.597 17.0359Z" fill="white"/>
</g>
<defs>
<clipPath id="clip0_13398_67291">
<rect width="141" height="17.9687" fill="white"/>
</clipPath>
</defs>
</svg>
