<svg width="100" height="34" viewBox="0 0 100 34" fill="none" xmlns="http://www.w3.org/2000/svg">
<path d="M63.6638 9.41619C63.4974 9.2661 63.3975 9.03262 63.4142 8.78246C71.9995 7.86523 78.7381 9.34948 85.3934 10.8337C86.6912 11.1172 93.413 11.7676 95.027 9.58296C96.6409 10.5502 97.373 14.0857 95.8256 15.2865C95.5594 15.4866 96.0086 16.087 96.2083 16.4872C96.541 17.171 96.8738 17.8714 96.957 18.8053C96.9736 19.0221 96.7407 19.389 96.4579 19.4224C95.9421 19.4891 95.4762 19.4724 95.1434 20.1562C94.977 20.4897 95.1933 21.1234 95.2765 21.2235C96.2416 22.3575 97.2399 23.1413 98.0718 24.242C98.521 24.8424 98.8538 25.5261 99.4694 25.9431C99.6691 26.0765 99.7855 27.8109 99.8188 28.0944L100.002 29.7121C99.7689 29.7788 99.5193 29.7621 99.3363 29.6287L97.1067 27.9276C87.4732 22.2908 78.0226 22.8745 75.1275 23.2414C74.4953 23.3248 73.863 23.2581 73.2807 23.0413C71.0012 22.2408 66.5422 20.5898 66.3924 20.5397C63.6804 19.4724 60.8186 18.5718 57.9402 17.6213C57.4743 17.4712 56.9585 17.4545 56.476 17.5545C52.2166 18.5051 47.6078 19.2556 43.0489 19.956L38.1905 20.473C26.1111 21.4903 8.27483 18.1382 6.51117 17.5379C6.42797 17.4045 6.21168 16.9375 6.44461 16.9375C6.69419 16.9375 13.8154 16.9875 13.8154 16.9875C17.6089 16.8708 21.2693 16.8041 25.3291 16.2204C34.7131 14.8862 43.4149 12.8516 53.1983 11.9344C56.3762 11.6342 59.5375 11.5675 62.6655 11.5008C63.9133 11.9011 66.3259 14.1691 70.4522 15.6701C74.5785 17.171 75.427 17.221 77.59 17.1376L80.1856 17.0042C82.4484 16.8208 81.5998 15.1864 81.2172 15.003C81.2172 15.003 74.7615 10.2834 64.0464 9.64967C63.9965 9.66634 63.7469 9.49957 63.6638 9.41619Z" fill="white"/>
<path d="M57.9165 20.2351C58.2483 20.1506 58.6134 20.1844 58.912 20.3364C60.4053 21.0458 61.7825 21.6369 63.1762 22.3125C65.4826 23.4272 68.2369 24.0352 70.8751 24.6094C76.0021 25.7579 80.8139 26.7713 85.609 27.9705C90.5204 29.2034 97.8044 33.4089 97.8044 33.4089C97.8873 33.4595 97.8707 33.9493 97.8873 34C88.5127 30.9599 78.0761 29.2372 64.9184 31.5003C63.0269 30.183 54.0837 22.6503 52.524 22.1605C52.4742 22.1436 52.441 21.4342 52.441 21.4342C52.441 21.4342 56.4066 20.6066 57.9165 20.2351ZM0.158686 2.29848C0.0425397 2.19714 -0.0736064 1.35267 0.059132 1.42022C2.01702 2.31536 4.19061 2.99094 6.31443 3.59896C10.9769 4.91634 16.1868 5.33858 21.8116 5.33858C24.5991 5.33858 27.453 5.27102 30.141 5.43991C35.4339 5.79459 40.4116 6.62218 44.4767 8.63202C44.8749 8.81781 45.3063 9.18937 45.2897 9.69606L43.2987 9.91562L36.9604 11.689L36.1308 11.3512C34.8698 10.8445 33.5092 10.5743 32.1486 10.5574C29.7593 10.5236 27.3369 10.5574 25.014 10.4392C19.5385 10.169 14.4778 9.05426 9.76563 8.05778C5.78348 7.21331 0.158686 2.29848 0.158686 2.29848Z" fill="white"/>
<path d="M26.6227 28.2888C26.423 28.2577 25.7076 28.1023 25.5911 28.0867C25.4746 28.0712 25.1252 27.636 25.5745 27.7137C26.9388 28.009 30.0668 28.0245 31.8471 27.8536C31.8471 27.8536 36.955 27.5893 38.3859 27.3873C41.2477 27.1852 44.8082 26.5324 44.8082 26.5324C47.4204 26.1438 49.9328 25.5998 52.0458 24.7915C52.9443 26.1127 54.292 26.8899 55.9225 27.2785C56.1388 27.3406 56.4051 27.5582 56.3219 27.8536C52.9942 28.5219 49.6666 29.268 45.9396 29.5634L41.1645 29.7499C38.8018 29.7032 36.3727 29.5944 34.1099 29.3768C31.5143 29.1437 29.135 28.6463 26.6227 28.2888Z" fill="white"/>
<path d="M38.1993 0.546684C37.8626 0.381589 38.0983 -0.0311477 38.2498 0.00187123C40.9263 0.497156 43.7206 0.860364 46.2288 1.57027C48.6865 2.28018 50.252 3.05613 52.6087 4.21179L56.8171 6.90283C58.2816 7.8934 58.0796 7.38161 55.7397 7.69529C53.4167 8.00897 52.2384 8.43822 50.5214 9.19765C49.9995 9.44529 47.2725 5.35094 44.4108 3.79905C42.3908 2.70943 40.3539 1.55376 38.1993 0.546684Z" fill="white"/>
</svg>
